<svg width="242" height="252" viewBox="0 0 242 252" fill="none" xmlns="http://www.w3.org/2000/svg">
<path d="M177.014 10.1133V32.3079H167.292V9.80186H119.752V32.3079H110.03V10.1133L120.142 0.000488281H166.901L177.014 10.1133Z" fill="#573240"/>
<path d="M173.105 32.3088V10.1129L162.992 0H116.232L106.121 10.1129V32.3088H67.2255L42 251.763H211.604V32.3088H173.105ZM163.383 32.3088H115.843V9.80137H163.383V32.3088Z" fill="#F5AB60"/>
<path d="M242 251.762H211.603V32.3079H216.775L242 251.762Z" fill="#573240"/>
<path d="M167.593 104.91C167.593 121.458 157.374 135.495 143.212 140.418V113.512C143.212 111.068 144.421 108.775 146.455 107.23C148.593 105.607 150.008 102.776 150.008 99.5562C150.008 94.5161 146.542 90.4346 142.268 90.4346C137.993 90.4346 134.527 94.5161 134.527 99.5562C134.527 102.776 135.942 105.607 138.08 107.23C140.115 108.775 141.323 111.068 141.323 113.512V141.014C138.366 141.853 135.259 142.3 132.051 142.3C128.867 142.3 125.78 141.859 122.843 141.032V117.085C122.843 114.641 124.051 112.348 126.085 110.803C127.274 109.901 128.24 108.623 128.863 107.115C129.36 105.912 129.638 104.56 129.638 103.131V91.3793C129.638 90.8571 129.216 90.4346 128.694 90.4346H128.692C128.172 90.4346 127.748 90.8571 127.748 91.3793V104.119C127.748 104.797 127.474 105.41 127.03 105.854C126.586 106.298 125.973 106.573 125.296 106.573C123.941 106.573 122.843 105.474 122.843 104.119V91.3793C122.843 91.1182 122.737 90.8824 122.566 90.7109C122.395 90.5406 122.159 90.4346 121.898 90.4346C121.376 90.4346 120.953 90.8571 120.953 91.3793V104.119C120.953 105.474 119.856 106.573 118.501 106.573H118.5C117.146 106.573 116.047 105.474 116.047 104.119V91.3793C116.047 91.1182 115.941 90.8824 115.771 90.7109C115.599 90.5406 115.363 90.4346 115.102 90.4346C114.58 90.4346 114.158 90.8571 114.158 91.3793V103.131C114.158 104.56 114.436 105.912 114.933 107.115C115.556 108.623 116.521 109.901 117.709 110.803C119.745 112.348 120.953 114.641 120.953 117.085V140.44C106.759 135.537 96.5098 121.482 96.5098 104.91C96.5098 84.2607 112.422 67.5198 132.051 67.5198C151.681 67.5198 167.593 84.2607 167.593 104.91Z" fill="white"/>
<path d="M106.12 9.98706H173.104" stroke="#573240" stroke-width="5" stroke-miterlimit="10" stroke-linecap="round"/>
<path d="M96.8953 227.634L88.6091 244.277C86.3632 248.787 81.7591 251.638 76.7204 251.638H54.7544C59.793 251.638 64.3972 248.787 66.643 244.277L74.9292 227.634H96.8953Z" fill="#573240"/>
<path d="M74.93 227.634L74.0487 229.404L66.6439 244.277C64.398 248.787 59.7938 251.638 54.7552 251.638H23.2802C18.2416 251.638 13.6373 248.787 11.3915 244.277L3.98672 229.404L3.10535 227.634H74.93Z" fill="#FF6E00"/>
<path d="M74.9292 227.634L73.6342 230.263H4.43533L3.10437 227.634H74.9292Z" fill="#573240"/>
<path d="M100 227.634L90.0405 207.631C87.7125 202.955 82.94 200 77.7171 200H54.9086C60.1315 200 64.9039 202.955 67.2319 207.631L77.1914 227.634H100Z" fill="#FCD4D0"/>
<path d="M77.1914 227.634L67.2319 207.631C64.9039 202.955 60.1315 200 54.9086 200H22.2828C17.0601 200 12.2875 202.955 9.95951 207.631L0 227.634H77.1914Z" fill="white"/>
<path d="M212.895 227.634L204.609 244.277C202.363 248.787 197.759 251.638 192.72 251.638H170.754C175.793 251.638 180.397 248.787 182.643 244.277L190.929 227.634H212.895Z" fill="#573240"/>
<path d="M190.93 227.634L190.049 229.404L182.644 244.277C180.398 248.787 175.794 251.638 170.755 251.638H139.28C134.242 251.638 129.637 248.787 127.392 244.277L119.987 229.404L119.105 227.634H190.93Z" fill="#FF6E00"/>
<path d="M190.929 227.634L189.634 230.263H120.435L119.104 227.634H190.929Z" fill="#573240"/>
<path d="M216 227.634L206.04 207.631C203.712 202.955 198.94 200 193.717 200H170.909C176.131 200 180.904 202.955 183.232 207.631L193.191 227.634H216Z" fill="#FCD4D0"/>
<path d="M193.191 227.634L183.232 207.631C180.904 202.955 176.132 200 170.909 200H138.283C133.06 200 128.288 202.955 125.96 207.631L116 227.634H193.191Z" fill="white"/>
</svg>
