<svg width="233" height="503" viewBox="0 0 233 503" fill="none" xmlns="http://www.w3.org/2000/svg">
<path d="M59.2223 500H99.5837C100.976 500 101.514 498.189 100.347 497.429C95.04 493.973 88.8563 489.292 86.805 482.959L44.7409 482.851C44.7409 482.851 40.1622 484.351 41.4013 500H53.0528V498.121H59.2223V500Z" fill="#FCD4D0"/>
<path d="M41.4013 500H53.0528V498.127H59.2222V500H100.983" stroke="#573240" stroke-width="5" stroke-miterlimit="10" stroke-linecap="round" stroke-linejoin="round"/>
<path d="M81.6328 489.015C82.6357 487.747 84.5093 486.894 86.6549 486.894C87.94 486.894 89.1273 487.2 90.0884 487.718" stroke="#573240" stroke-width="5" stroke-miterlimit="10" stroke-linecap="round" stroke-linejoin="round"/>
<path d="M83.6313 492.213C84.6864 490.945 86.6575 490.092 88.9149 490.092C90.5994 490.092 92.1247 490.567 93.2287 491.335" stroke="#573240" stroke-width="5" stroke-miterlimit="10" stroke-linecap="round" stroke-linejoin="round"/>
<path d="M155.552 500H195.913C197.306 500 197.843 498.189 196.676 497.429C191.369 493.973 185.186 489.292 183.134 482.959L139.072 482.851C139.072 482.851 134.493 484.351 135.732 500H149.382V498.121H155.552V500Z" fill="#FCD4D0"/>
<path d="M135.732 500H149.382V498.127H155.552V500H197.312" stroke="#573240" stroke-width="5" stroke-miterlimit="10" stroke-linecap="round" stroke-linejoin="round"/>
<path d="M177.962 489.015C178.965 487.747 180.839 486.894 182.984 486.894C184.269 486.894 185.457 487.2 186.418 487.718" stroke="#573240" stroke-width="5" stroke-miterlimit="10" stroke-linecap="round" stroke-linejoin="round"/>
<path d="M179.961 492.213C181.016 490.945 182.987 490.092 185.244 490.092C186.929 490.092 188.454 490.567 189.558 491.335" stroke="#573240" stroke-width="5" stroke-miterlimit="10" stroke-linecap="round" stroke-linejoin="round"/>
<path d="M183.162 308.544C183.162 308.544 175.367 453.336 183.134 482.96H139.132C124.573 440.653 105.483 374.781 129.763 315.223C129.763 315.223 128.422 299.644 126.745 279.467L119.63 305.892C109.719 347.081 86.8042 482.96 86.8042 482.96H44.4013C44.4013 482.96 22.2855 376.78 61.3589 310.213C61.3589 310.213 77.589 203.641 77.6589 190.918H179.164C179.164 190.918 182.363 226.653 183.162 308.544Z" fill="#573240"/>
<path d="M77.6595 190.718H183.162L193.391 292.453C194.23 300.782 187.691 308.013 179.321 308.013H120.824C107.22 308.013 95.8528 297.657 94.5889 284.112L87.2873 205.86C86.8268 200.925 82.6851 197.152 77.7287 197.152H77.1155L77.6595 190.718Z" fill="#F1B104"/>
<path d="M183.806 197.112H77.1185L77.6601 190.717H183.163L183.806 197.112Z" fill="#FF6E00"/>
<path d="M230.271 146.736L198.94 70.9579C195.427 62.4622 188.164 56.0788 179.286 53.6846L138.073 42.5728L110.617 33.8851L105.716 40.914L51.3282 50.2012C41.6833 51.846 33.5812 58.3712 29.9159 67.4405L2.85776 134.387C-8.9256 163.538 17.613 193.638 48.0107 185.598L76.0761 178.177L77.6589 190.918H200.729C223.502 190.918 238.973 167.781 230.271 146.736ZM59.4203 127.117L64.6165 110.883C65.1421 109.24 67.5364 109.464 67.7482 111.176L69.7287 127.117H59.4203Z" fill="#B2DDDA"/>
<path d="M97.741 172.447L76.076 178.177" stroke="#573240" stroke-width="4" stroke-miterlimit="10" stroke-linecap="round"/>
<path d="M59.4195 127.517H102.986" stroke="#573240" stroke-width="4" stroke-miterlimit="10" stroke-linecap="round"/>
<path d="M131.63 56.2855C132.784 56.2855 133.719 55.3503 133.719 54.1966C133.719 53.043 132.784 52.1078 131.63 52.1078C130.476 52.1078 129.541 53.043 129.541 54.1966C129.541 55.3503 130.476 56.2855 131.63 56.2855Z" stroke="#573240" stroke-width="5" stroke-miterlimit="10" stroke-linecap="round"/>
<path d="M131.63 75.9379C132.784 75.9379 133.719 75.0027 133.719 73.849C133.719 72.6954 132.784 71.7601 131.63 71.7601C130.476 71.7601 129.541 72.6954 129.541 73.849C129.541 75.0027 130.476 75.9379 131.63 75.9379Z" stroke="#573240" stroke-width="5" stroke-miterlimit="10" stroke-linecap="round"/>
<path d="M131.63 95.5901C132.784 95.5901 133.719 94.6549 133.719 93.5012C133.719 92.3476 132.784 91.4124 131.63 91.4124C130.476 91.4124 129.541 92.3476 129.541 93.5012C129.541 94.6549 130.476 95.5901 131.63 95.5901Z" stroke="#573240" stroke-width="5" stroke-miterlimit="10" stroke-linecap="round"/>
<path d="M131.63 115.242C132.784 115.242 133.719 114.307 133.719 113.153C133.719 112 132.784 111.065 131.63 111.065C130.476 111.065 129.541 112 129.541 113.153C129.541 114.307 130.476 115.242 131.63 115.242Z" stroke="#573240" stroke-width="5" stroke-miterlimit="10" stroke-linecap="round"/>
<path d="M131.63 133.629C132.784 133.629 133.719 132.694 133.719 131.54C133.719 130.386 132.784 129.451 131.63 129.451C130.476 129.451 129.541 130.386 129.541 131.54C129.541 132.694 130.476 133.629 131.63 133.629Z" stroke="#573240" stroke-width="5" stroke-miterlimit="10" stroke-linecap="round"/>
<path d="M184.564 90.7791C184.564 90.7791 182.681 110.937 178.968 134.411" stroke="#573240" stroke-width="4" stroke-miterlimit="10" stroke-linecap="round"/>
<path d="M102.535 168.898C106.503 168.898 109.72 159.545 109.72 148.008C109.72 136.47 106.503 127.117 102.535 127.117C98.5674 127.117 95.3508 136.47 95.3508 148.008C95.3508 159.545 98.5674 168.898 102.535 168.898Z" fill="#573240"/>
<path d="M139.311 142.901C139.311 142.901 128.049 114.113 123.411 114.697C118.772 115.28 133.014 140.679 133.014 140.679L139.311 142.901Z" fill="#FF6E00"/>
<path d="M139.405 147.938V164.989H98.351C96.5343 161.198 95.3512 155.005 95.3512 148.008C95.3512 140.635 96.6642 134.154 98.6488 130.437H113.942C115.464 130.437 116.975 130.773 118.398 131.428L134.141 138.675C137.308 140.136 139.405 143.821 139.405 147.938Z" fill="#F6ACC1"/>
<path d="M123.096 140.693L134.979 146.164C137.371 147.265 138.953 150.048 138.953 153.154V160.659" stroke="#573240" stroke-width="5" stroke-miterlimit="10" stroke-linecap="round"/>
<path d="M123.096 147.799L134.979 153.269C137.371 154.37 138.953 157.153 138.953 160.26V164.739" stroke="#573240" stroke-width="5" stroke-miterlimit="10" stroke-linecap="round"/>
<path d="M123.696 155.593L135.578 161.063C137.08 161.755 138.263 163.109 138.935 164.79" stroke="#573240" stroke-width="5" stroke-miterlimit="10" stroke-linecap="round"/>
<path d="M174.595 190.917H121.46L138.558 137.206C139.088 135.542 140.633 134.411 142.38 134.411H184.204C188.35 134.411 191.298 138.444 190.04 142.394L174.595 190.917Z" fill="white"/>
<path d="M146.637 139.996L130.427 190.916H121.434L138.471 137.397C139.037 135.619 140.688 134.412 142.554 134.412C145.454 134.412 147.516 137.233 146.637 139.996Z" fill="#FCD4D0"/>
<path d="M121.56 190.493L138.471 137.797C139.037 136.019 140.688 134.812 142.554 134.812H185.687" stroke="white" stroke-width="5" stroke-miterlimit="10" stroke-linecap="round"/>
<path d="M147.19 134.197L147.2 134.159C147.658 132.382 148.996 131.174 150.508 131.174C152.858 131.174 154.529 133.995 153.816 136.759L153.807 136.797C153.348 138.575 152.01 139.782 150.498 139.782" stroke="#573240" stroke-width="4" stroke-miterlimit="10" stroke-linecap="round"/>
<path d="M157.782 134.197L157.792 134.159C158.251 132.382 159.589 131.174 161.1 131.174C163.45 131.174 165.121 133.995 164.409 136.759L164.399 136.797C163.94 138.575 162.602 139.782 161.091 139.782" stroke="#573240" stroke-width="4" stroke-miterlimit="10" stroke-linecap="round"/>
<path d="M168.375 134.197L168.384 134.159C168.843 132.382 170.181 131.174 171.693 131.174C174.042 131.174 175.713 133.995 175.001 136.759L174.991 136.797C174.533 138.575 173.194 139.782 171.683 139.782" stroke="#573240" stroke-width="4" stroke-miterlimit="10" stroke-linecap="round"/>
<path d="M178.967 134.197L178.977 134.159C179.435 132.382 180.773 131.174 182.285 131.174C184.635 131.174 186.306 133.995 185.593 136.759L185.583 136.797C185.125 138.575 183.787 139.782 182.275 139.782" stroke="#573240" stroke-width="4" stroke-miterlimit="10" stroke-linecap="round"/>
<path d="M187.032 151.9H194.219C197.289 151.9 200.167 153.394 201.934 155.905L202.969 157.375C209.339 166.426 208.764 178.643 201.572 187.055L201.189 187.504C199.337 189.67 196.629 190.918 193.779 190.918H166.634C158.668 190.918 152.389 184.134 153.003 176.192L153.952 163.91C154.114 161.821 155.857 160.207 157.953 160.207H180.181C182.686 160.207 184.904 158.586 185.664 156.199L187.032 151.9Z" fill="#F6ACC1"/>
<path d="M174.793 183.723H164.911C160.198 183.723 156.088 181.508 153.45 178.132" stroke="#573240" stroke-width="5" stroke-miterlimit="10" stroke-linecap="round"/>
<path d="M175.192 177.327H165.311C160.598 177.327 156.488 175.112 153.849 171.737" stroke="#573240" stroke-width="5" stroke-miterlimit="10" stroke-linecap="round"/>
<path d="M175.792 169.933H165.91C161.197 169.933 157.087 167.718 154.449 164.342" stroke="#573240" stroke-width="5" stroke-miterlimit="10" stroke-linecap="round"/>
<path d="M138.073 25.1316V42.5728L110.719 33.9172L116.456 25.1316H138.073Z" fill="#F6ACC1"/>
<path d="M142.529 13.7379V28.9867C142.529 32.0085 140.079 34.4587 137.057 34.4587H128.508C125.704 34.4587 123.431 32.1864 123.431 29.3844V25.2874H117.15C115.403 25.2874 113.988 23.8725 113.988 22.1257V19.7695C113.988 18.0228 115.403 16.6078 117.15 16.6078H119.87C121.837 16.6078 123.431 18.2006 123.431 20.1692V14.2995C123.431 12.0052 125.292 10.1445 127.586 10.1445H138.936C140.921 10.1445 142.529 11.7534 142.529 13.7379Z" fill="#F6ACC1"/>
<path d="M145.657 6.77904C145.657 10.5243 142.481 13.5601 138.564 13.5601C137.331 13.5601 136.17 13.2583 135.159 12.7287L130.37 10.6822C129.955 10.5043 129.525 10.3704 129.083 10.2805C128.644 10.1905 128.194 10.1446 127.742 10.1446C125.362 10.1446 123.431 12.0752 123.431 14.4574V19.9694H123.425C123.321 18.0947 121.771 16.6078 119.87 16.6078H119.43V11.1698C119.43 8.55373 121.553 6.43128 124.169 6.43128H131.481C131.671 2.84991 134.769 0 138.564 0C142.481 0 145.657 3.03578 145.657 6.77904Z" fill="#FF6E00"/>
<path d="M142.869 39.607V45.5966C142.869 46.6958 141.706 47.4053 140.729 46.9016L132.563 42.6927C132.445 43.3403 131.877 43.8299 131.196 43.8299H130.264C129.587 43.8299 129.019 43.3423 128.899 42.6987L120.743 46.9016C119.766 47.4053 118.603 46.6958 118.603 45.5966V39.607C118.603 38.6117 119.57 37.9062 120.517 38.208L128.875 40.8741C128.893 40.1226 129.509 39.5191 130.264 39.5191H131.196C131.953 39.5191 132.569 40.1246 132.585 40.8761L140.955 38.208C141.902 37.9062 142.869 38.6117 142.869 39.607Z" fill="#573240"/>
<path d="M121.351 21.2858C121.351 19.8509 120.188 18.6877 118.753 18.6877" stroke="#573240" stroke-width="5" stroke-miterlimit="10" stroke-linecap="round"/>
<path d="M136.544 28.25C134.993 28.8453 133.319 28.2418 132.805 26.9023L131.835 27.691" stroke="#573240" stroke-width="5" stroke-miterlimit="10" stroke-linecap="round"/>
<path d="M132.536 17.1724H128.512C128.064 17.1724 127.702 16.8099 127.702 16.3628V16.191C127.702 15.7437 128.064 15.3813 128.512 15.3813H132.536C132.983 15.3813 133.346 15.7439 133.346 16.191V16.3628C133.346 16.8099 132.983 17.1724 132.536 17.1724Z" fill="#FF6E00"/>
<path d="M138.383 16.2771V23.7744C138.383 24.4995 137.795 25.0874 137.07 25.0874H135.68" stroke="#573240" stroke-width="5" stroke-miterlimit="10" stroke-linecap="round"/>
<path d="M130.7 21.289C131.141 21.289 131.499 20.7778 131.499 20.1471C131.499 19.5164 131.141 19.0051 130.7 19.0051C130.258 19.0051 129.9 19.5164 129.9 20.1471C129.9 20.7778 130.258 21.289 130.7 21.289Z" fill="#573240"/>
<path d="M140.693 21.1462C141.079 21.1462 141.392 20.6989 141.392 20.147C141.392 19.5951 141.079 19.1477 140.693 19.1477C140.306 19.1477 139.993 19.5951 139.993 20.147C139.993 20.6989 140.306 21.1462 140.693 21.1462Z" fill="#573240"/>
<path d="M142.729 17.1724H138.704C138.257 17.1724 137.894 16.8099 137.894 16.3628V16.191C137.894 15.7437 138.257 15.3813 138.704 15.3813H142.729C143.176 15.3813 143.538 15.7439 143.538 16.191V16.3628C143.538 16.8099 143.176 17.1724 142.729 17.1724Z" fill="#FF6E00"/>
<path d="M137.857 34.8588H128.706C125.904 34.8588 123.631 32.5865 123.631 29.7836" stroke="#573240" stroke-width="5" stroke-miterlimit="10" stroke-linecap="round"/>
</svg>
